<svg xmlns="http://www.w3.org/2000/svg" xmlns:xlink="http://www.w3.org/1999/xlink" width="500" zoomAndPan="magnify" viewBox="0 0 375 374.999991" height="500" preserveAspectRatio="xMidYMid meet" version="1.0"><defs><g/><clipPath id="325ab477de"><rect x="0" width="299" y="0" height="118"/></clipPath><clipPath id="0999985724"><path d="M 334.136719 188.25 L 349 188.25 L 349 202.5 L 334.136719 202.5 Z M 334.136719 188.25 " clip-rule="nonzero"/></clipPath></defs><g transform="matrix(1, 0, 0, 1, 32, 110)"><g clip-path="url(#325ab477de)"><g fill="#f2ede4" fill-opacity="1"><g transform="translate(1.12671, 91.124815)"><g><path d="M 4.28125 0 L 4.28125 -46.015625 L 18.25 -46.015625 L 18.25 -40.515625 C 20 -42.429688 22.164062 -43.984375 24.75 -45.171875 C 27.34375 -46.367188 30.414062 -46.96875 33.96875 -46.96875 C 37.394531 -46.96875 40.519531 -46.285156 43.34375 -44.921875 C 46.164062 -43.554688 48.394531 -41.59375 50.03125 -39.03125 C 52.070312 -41.300781 54.570312 -43.191406 57.53125 -44.703125 C 60.5 -46.210938 64.109375 -46.96875 68.359375 -46.96875 C 74.828125 -46.96875 79.878906 -45.085938 83.515625 -41.328125 C 87.148438 -37.578125 88.96875 -32.445312 88.96875 -25.9375 L 88.96875 0 L 75 0 L 75 -22.53125 C 75 -26.3125 74.171875 -29.265625 72.515625 -31.390625 C 70.859375 -33.515625 68.28125 -34.578125 64.78125 -34.578125 C 61.113281 -34.578125 58.332031 -33.515625 56.4375 -31.390625 C 54.550781 -29.265625 53.609375 -26.28125 53.609375 -22.4375 L 53.609375 0 L 39.640625 0 L 39.640625 -22.53125 C 39.640625 -26.3125 38.804688 -29.265625 37.140625 -31.390625 C 35.484375 -33.515625 32.910156 -34.578125 29.421875 -34.578125 C 25.753906 -34.578125 22.972656 -33.515625 21.078125 -31.390625 C 19.191406 -29.265625 18.25 -26.28125 18.25 -22.4375 L 18.25 0 Z M 4.28125 0 "/></g></g></g><g fill="#f2ede4" fill-opacity="1"><g transform="translate(94.637956, 91.124815)"><g><path d="M 21.125 0.953125 C 17.34375 0.953125 13.984375 0.398438 11.046875 -0.703125 C 8.109375 -1.804688 5.804688 -3.421875 4.140625 -5.546875 C 2.484375 -7.671875 1.65625 -10.242188 1.65625 -13.265625 C 1.65625 -16.296875 2.46875 -18.816406 4.09375 -20.828125 C 5.726562 -22.835938 7.957031 -24.40625 10.78125 -25.53125 C 13.601562 -26.664062 16.820312 -27.410156 20.4375 -27.765625 L 38.765625 -29.421875 L 38.765625 -29.6875 C 38.765625 -31.4375 37.960938 -32.921875 36.359375 -34.140625 C 34.765625 -35.359375 32.101562 -35.96875 28.375 -35.96875 C 25.226562 -35.96875 22.535156 -35.382812 20.296875 -34.21875 C 18.054688 -33.0625 16.585938 -31.582031 15.890625 -29.78125 L 3.3125 -33.171875 C 4.300781 -35.972656 6.003906 -38.40625 8.421875 -40.46875 C 10.835938 -42.53125 13.820312 -44.128906 17.375 -45.265625 C 20.925781 -46.398438 24.796875 -46.96875 28.984375 -46.96875 C 36.316406 -46.96875 42.035156 -45.515625 46.140625 -42.609375 C 50.242188 -39.703125 52.296875 -35.363281 52.296875 -29.59375 L 52.296875 -12.828125 C 52.296875 -11.609375 52.671875 -10.75 53.421875 -10.25 C 54.179688 -9.757812 55.785156 -9.773438 58.234375 -10.296875 L 58.234375 0 C 53.109375 0.925781 49.09375 0.851562 46.1875 -0.21875 C 43.28125 -1.289062 41.242188 -2.90625 40.078125 -5.0625 C 37.984375 -3.257812 35.316406 -1.804688 32.078125 -0.703125 C 28.847656 0.398438 25.195312 0.953125 21.125 0.953125 Z M 38.765625 -17.640625 L 38.765625 -20.078125 L 22.4375 -18.421875 C 20.050781 -18.191406 18.242188 -17.738281 17.015625 -17.0625 C 15.796875 -16.394531 15.1875 -15.304688 15.1875 -13.796875 C 15.1875 -12.335938 15.925781 -11.210938 17.40625 -10.421875 C 18.894531 -9.640625 20.976562 -9.25 23.65625 -9.25 C 26.039062 -9.25 28.394531 -9.582031 30.71875 -10.25 C 33.050781 -10.925781 34.972656 -11.890625 36.484375 -13.140625 C 38.003906 -14.390625 38.765625 -15.890625 38.765625 -17.640625 Z M 38.765625 -17.640625 "/></g></g></g><g fill="#f2ede4" fill-opacity="1"><g transform="translate(151.827353, 91.124815)"><g><path d="M 10.390625 -14.9375 L 10.390625 -34.484375 L -0.09375 -34.484375 L -0.09375 -46.015625 L 10.390625 -46.015625 L 10.390625 -58.765625 L 24.09375 -58.765625 L 24.09375 -46.015625 L 43.21875 -46.015625 L 43.21875 -34.484375 L 24.09375 -34.484375 L 24.09375 -18.078125 C 24.09375 -15.566406 24.804688 -13.800781 26.234375 -12.78125 C 27.660156 -11.769531 29.828125 -11.265625 32.734375 -11.265625 C 34.546875 -11.265625 36.28125 -11.453125 37.9375 -11.828125 C 39.59375 -12.203125 41.179688 -12.65625 42.703125 -13.1875 L 45.234375 -2.09375 C 43.253906 -1.332031 40.878906 -0.675781 38.109375 -0.125 C 35.347656 0.425781 32.335938 0.703125 29.078125 0.703125 C 25.640625 0.703125 22.492188 0.179688 19.640625 -0.859375 C 16.785156 -1.910156 14.53125 -3.585938 12.875 -5.890625 C 11.21875 -8.191406 10.390625 -11.207031 10.390625 -14.9375 Z M 10.390625 -14.9375 "/></g></g></g><g fill="#f2ede4" fill-opacity="1"><g transform="translate(198.36471, 91.124815)"><g><path d="M 40.34375 -45.75 L 40.34375 -32.21875 C 39.289062 -32.394531 38.398438 -32.539062 37.671875 -32.65625 C 36.941406 -32.769531 35.96875 -32.828125 34.75 -32.828125 C 31.550781 -32.828125 28.695312 -32.359375 26.1875 -31.421875 C 23.6875 -30.492188 21.738281 -29 20.34375 -26.9375 C 18.945312 -24.875 18.25 -22.125 18.25 -18.6875 L 18.25 0 L 4.28125 0 L 4.28125 -46.015625 L 18.25 -46.015625 L 18.25 -38.0625 C 20.28125 -40.976562 22.691406 -43.078125 25.484375 -44.359375 C 28.285156 -45.640625 31.550781 -46.28125 35.28125 -46.28125 C 36.320312 -46.28125 37.25 -46.21875 38.0625 -46.09375 C 38.882812 -45.976562 39.644531 -45.863281 40.34375 -45.75 Z M 40.34375 -45.75 "/></g></g></g><g fill="#f2ede4" fill-opacity="1"><g transform="translate(238.964825, 91.124815)"><g><path d="M 21.125 0.953125 C 17.34375 0.953125 13.984375 0.398438 11.046875 -0.703125 C 8.109375 -1.804688 5.804688 -3.421875 4.140625 -5.546875 C 2.484375 -7.671875 1.65625 -10.242188 1.65625 -13.265625 C 1.65625 -16.296875 2.46875 -18.816406 4.09375 -20.828125 C 5.726562 -22.835938 7.957031 -24.40625 10.78125 -25.53125 C 13.601562 -26.664062 16.820312 -27.410156 20.4375 -27.765625 L 38.765625 -29.421875 L 38.765625 -29.6875 C 38.765625 -31.4375 37.960938 -32.921875 36.359375 -34.140625 C 34.765625 -35.359375 32.101562 -35.96875 28.375 -35.96875 C 25.226562 -35.96875 22.535156 -35.382812 20.296875 -34.21875 C 18.054688 -33.0625 16.585938 -31.582031 15.890625 -29.78125 L 3.3125 -33.171875 C 4.300781 -35.972656 6.003906 -38.40625 8.421875 -40.46875 C 10.835938 -42.53125 13.820312 -44.128906 17.375 -45.265625 C 20.925781 -46.398438 24.796875 -46.96875 28.984375 -46.96875 C 36.316406 -46.96875 42.035156 -45.515625 46.140625 -42.609375 C 50.242188 -39.703125 52.296875 -35.363281 52.296875 -29.59375 L 52.296875 -12.828125 C 52.296875 -11.609375 52.671875 -10.75 53.421875 -10.25 C 54.179688 -9.757812 55.785156 -9.773438 58.234375 -10.296875 L 58.234375 0 C 53.109375 0.925781 49.09375 0.851562 46.1875 -0.21875 C 43.28125 -1.289062 41.242188 -2.90625 40.078125 -5.0625 C 37.984375 -3.257812 35.316406 -1.804688 32.078125 -0.703125 C 28.847656 0.398438 25.195312 0.953125 21.125 0.953125 Z M 38.765625 -17.640625 L 38.765625 -20.078125 L 22.4375 -18.421875 C 20.050781 -18.191406 18.242188 -17.738281 17.015625 -17.0625 C 15.796875 -16.394531 15.1875 -15.304688 15.1875 -13.796875 C 15.1875 -12.335938 15.925781 -11.210938 17.40625 -10.421875 C 18.894531 -9.640625 20.976562 -9.25 23.65625 -9.25 C 26.039062 -9.25 28.394531 -9.582031 30.71875 -10.25 C 33.050781 -10.925781 34.972656 -11.890625 36.484375 -13.140625 C 38.003906 -14.390625 38.765625 -15.890625 38.765625 -17.640625 Z M 38.765625 -17.640625 "/></g></g></g></g></g><g clip-path="url(#0999985724)"><path fill="#f2ede4" d="M 348.839844 188.253906 L 348.839844 202.320312 L 334.136719 202.320312 " fill-opacity="1" fill-rule="nonzero"/></g></svg>