<svg xmlns="http://www.w3.org/2000/svg" xmlns:xlink="http://www.w3.org/1999/xlink" width="500" zoomAndPan="magnify" viewBox="0 0 375 157.92" height="200" preserveAspectRatio="xMidYMid meet" version="1.0"><defs><g/><clipPath id="c38f4711a9"><path d="M 0.84375 0.714844 L 317 0.714844 L 317 123.773438 L 0.84375 123.773438 Z M 0.84375 0.714844 " clip-rule="nonzero"/></clipPath><clipPath id="21f21769ef"><rect x="0" width="317" y="0" height="124"/></clipPath><clipPath id="7a7255a41a"><path d="M 319.863281 82.722656 L 335.472656 82.722656 L 335.472656 97.820312 L 319.863281 97.820312 Z M 319.863281 82.722656 " clip-rule="nonzero"/></clipPath><clipPath id="9a2cb0aee0"><rect x="0" width="336" y="0" height="124"/></clipPath></defs><g transform="matrix(1, 0, 0, 1, 23, 6)"><g clip-path="url(#9a2cb0aee0)"><g clip-path="url(#c38f4711a9)"><g transform="matrix(1, 0, 0, 1, -0.000000000000003553, 0.000000000000002665)"><g clip-path="url(#21f21769ef)"><g fill="#0d0d0d" fill-opacity="1"><g transform="translate(0.978999, 96.362382)"><g><path d="M 4.53125 0 L 4.53125 -48.75 L 19.328125 -48.75 L 19.328125 -42.921875 C 21.179688 -44.953125 23.476562 -46.597656 26.21875 -47.859375 C 28.96875 -49.128906 32.222656 -49.765625 35.984375 -49.765625 C 39.617188 -49.765625 42.929688 -49.039062 45.921875 -47.59375 C 48.910156 -46.144531 51.269531 -44.0625 53 -41.34375 C 55.15625 -43.75 57.804688 -45.753906 60.953125 -47.359375 C 64.097656 -48.960938 67.921875 -49.765625 72.421875 -49.765625 C 79.265625 -49.765625 84.613281 -47.773438 88.46875 -43.796875 C 92.320312 -39.816406 94.25 -34.375 94.25 -27.46875 L 94.25 0 L 79.453125 0 L 79.453125 -23.859375 C 79.453125 -27.867188 78.570312 -31 76.8125 -33.25 C 75.0625 -35.5 72.335938 -36.625 68.640625 -36.625 C 64.753906 -36.625 61.804688 -35.5 59.796875 -33.25 C 57.796875 -31 56.796875 -27.835938 56.796875 -23.765625 L 56.796875 0 L 42 0 L 42 -23.859375 C 42 -27.867188 41.117188 -31 39.359375 -33.25 C 37.597656 -35.5 34.867188 -36.625 31.171875 -36.625 C 27.285156 -36.625 24.335938 -35.5 22.328125 -33.25 C 20.328125 -31 19.328125 -27.835938 19.328125 -23.765625 L 19.328125 0 Z M 4.53125 0 "/></g></g></g><g fill="#0d0d0d" fill-opacity="1"><g transform="translate(100.042817, 96.362382)"><g><path d="M 22.390625 1.015625 C 18.378906 1.015625 14.816406 0.429688 11.703125 -0.734375 C 8.585938 -1.910156 6.148438 -3.625 4.390625 -5.875 C 2.628906 -8.125 1.75 -10.851562 1.75 -14.0625 C 1.75 -17.269531 2.613281 -19.9375 4.34375 -22.0625 C 6.070312 -24.1875 8.429688 -25.847656 11.421875 -27.046875 C 14.410156 -28.253906 17.816406 -29.046875 21.640625 -29.421875 L 41.0625 -31.171875 L 41.0625 -31.453125 C 41.0625 -33.296875 40.210938 -34.863281 38.515625 -36.15625 C 36.828125 -37.457031 34.007812 -38.109375 30.0625 -38.109375 C 26.726562 -38.109375 23.875 -37.488281 21.5 -36.25 C 19.125 -35.019531 17.566406 -33.453125 16.828125 -31.546875 L 3.515625 -35.15625 C 4.566406 -38.113281 6.367188 -40.6875 8.921875 -42.875 C 11.484375 -45.0625 14.644531 -46.753906 18.40625 -47.953125 C 22.164062 -49.160156 26.265625 -49.765625 30.703125 -49.765625 C 38.472656 -49.765625 44.53125 -48.222656 48.875 -45.140625 C 53.226562 -42.054688 55.40625 -37.460938 55.40625 -31.359375 L 55.40625 -13.59375 C 55.40625 -12.300781 55.804688 -11.390625 56.609375 -10.859375 C 57.410156 -10.335938 59.109375 -10.359375 61.703125 -10.921875 L 61.703125 0 C 56.273438 0.988281 52.019531 0.914062 48.9375 -0.21875 C 45.851562 -1.363281 43.691406 -3.078125 42.453125 -5.359375 C 40.234375 -3.453125 37.410156 -1.910156 33.984375 -0.734375 C 30.566406 0.429688 26.703125 1.015625 22.390625 1.015625 Z M 41.0625 -18.6875 L 41.0625 -21.28125 L 23.765625 -19.515625 C 21.242188 -19.265625 19.332031 -18.785156 18.03125 -18.078125 C 16.738281 -17.367188 16.09375 -16.210938 16.09375 -14.609375 C 16.09375 -13.066406 16.878906 -11.878906 18.453125 -11.046875 C 20.023438 -10.222656 22.226562 -9.8125 25.0625 -9.8125 C 27.59375 -9.8125 30.09375 -10.164062 32.5625 -10.875 C 35.03125 -11.582031 37.0625 -12.597656 38.65625 -13.921875 C 40.257812 -15.242188 41.0625 -16.832031 41.0625 -18.6875 Z M 41.0625 -18.6875 "/></g></g></g><g fill="#0d0d0d" fill-opacity="1"><g transform="translate(160.628045, 96.362382)"><g><path d="M 11 -15.8125 L 11 -36.53125 L -0.09375 -36.53125 L -0.09375 -48.75 L 11 -48.75 L 11 -62.25 L 25.53125 -62.25 L 25.53125 -48.75 L 45.78125 -48.75 L 45.78125 -36.53125 L 25.53125 -36.53125 L 25.53125 -19.140625 C 25.53125 -16.492188 26.285156 -14.628906 27.796875 -13.546875 C 29.304688 -12.472656 31.601562 -11.9375 34.6875 -11.9375 C 36.601562 -11.9375 38.4375 -12.132812 40.1875 -12.53125 C 41.945312 -12.9375 43.628906 -13.414062 45.234375 -13.96875 L 47.921875 -2.21875 C 45.816406 -1.414062 43.300781 -0.722656 40.375 -0.140625 C 37.445312 0.441406 34.253906 0.734375 30.796875 0.734375 C 27.160156 0.734375 23.832031 0.179688 20.8125 -0.921875 C 17.789062 -2.035156 15.398438 -3.804688 13.640625 -6.234375 C 11.878906 -8.671875 11 -11.863281 11 -15.8125 Z M 11 -15.8125 "/></g></g></g><g fill="#0d0d0d" fill-opacity="1"><g transform="translate(209.928727, 96.362382)"><g><path d="M 42.734375 -48.46875 L 42.734375 -34.125 C 41.617188 -34.3125 40.675781 -34.46875 39.90625 -34.59375 C 39.132812 -34.71875 38.101562 -34.78125 36.8125 -34.78125 C 33.425781 -34.78125 30.40625 -34.285156 27.75 -33.296875 C 25.09375 -32.304688 23.023438 -30.71875 21.546875 -28.53125 C 20.066406 -26.34375 19.328125 -23.429688 19.328125 -19.796875 L 19.328125 0 L 4.53125 0 L 4.53125 -48.75 L 19.328125 -48.75 L 19.328125 -40.328125 C 21.484375 -43.410156 24.039062 -45.628906 27 -46.984375 C 29.96875 -48.347656 33.425781 -49.03125 37.375 -49.03125 C 38.476562 -49.03125 39.460938 -48.96875 40.328125 -48.84375 C 41.191406 -48.71875 41.992188 -48.59375 42.734375 -48.46875 Z M 42.734375 -48.46875 "/></g></g></g><g fill="#0d0d0d" fill-opacity="1"><g transform="translate(252.939623, 96.362382)"><g><path d="M 22.390625 1.015625 C 18.378906 1.015625 14.816406 0.429688 11.703125 -0.734375 C 8.585938 -1.910156 6.148438 -3.625 4.390625 -5.875 C 2.628906 -8.125 1.75 -10.851562 1.75 -14.0625 C 1.75 -17.269531 2.613281 -19.9375 4.34375 -22.0625 C 6.070312 -24.1875 8.429688 -25.847656 11.421875 -27.046875 C 14.410156 -28.253906 17.816406 -29.046875 21.640625 -29.421875 L 41.0625 -31.171875 L 41.0625 -31.453125 C 41.0625 -33.296875 40.210938 -34.863281 38.515625 -36.15625 C 36.828125 -37.457031 34.007812 -38.109375 30.0625 -38.109375 C 26.726562 -38.109375 23.875 -37.488281 21.5 -36.25 C 19.125 -35.019531 17.566406 -33.453125 16.828125 -31.546875 L 3.515625 -35.15625 C 4.566406 -38.113281 6.367188 -40.6875 8.921875 -42.875 C 11.484375 -45.0625 14.644531 -46.753906 18.40625 -47.953125 C 22.164062 -49.160156 26.265625 -49.765625 30.703125 -49.765625 C 38.472656 -49.765625 44.53125 -48.222656 48.875 -45.140625 C 53.226562 -42.054688 55.40625 -37.460938 55.40625 -31.359375 L 55.40625 -13.59375 C 55.40625 -12.300781 55.804688 -11.390625 56.609375 -10.859375 C 57.410156 -10.335938 59.109375 -10.359375 61.703125 -10.921875 L 61.703125 0 C 56.273438 0.988281 52.019531 0.914062 48.9375 -0.21875 C 45.851562 -1.363281 43.691406 -3.078125 42.453125 -5.359375 C 40.234375 -3.453125 37.410156 -1.910156 33.984375 -0.734375 C 30.566406 0.429688 26.703125 1.015625 22.390625 1.015625 Z M 41.0625 -18.6875 L 41.0625 -21.28125 L 23.765625 -19.515625 C 21.242188 -19.265625 19.332031 -18.785156 18.03125 -18.078125 C 16.738281 -17.367188 16.09375 -16.210938 16.09375 -14.609375 C 16.09375 -13.066406 16.878906 -11.878906 18.453125 -11.046875 C 20.023438 -10.222656 22.226562 -9.8125 25.0625 -9.8125 C 27.59375 -9.8125 30.09375 -10.164062 32.5625 -10.875 C 35.03125 -11.582031 37.0625 -12.597656 38.65625 -13.921875 C 40.257812 -15.242188 41.0625 -16.832031 41.0625 -18.6875 Z M 41.0625 -18.6875 "/></g></g></g></g></g></g><g clip-path="url(#7a7255a41a)"><path fill="#0d0d0d" d="M 335.441406 82.726562 L 335.441406 97.628906 L 319.863281 97.628906 " fill-opacity="1" fill-rule="nonzero"/></g></g></g></svg>